<svg width="107" height="110" viewBox="0 0 107 110" fill="none" xmlns="http://www.w3.org/2000/svg">
<path d="M52.163 69.8456C48.6554 69.8456 44.9562 69.6646 41.6668 69.143C38.931 68.7065 37.1479 68.2754 35.0881 67.7804C33.9703 67.509 32.8153 67.2322 31.3836 66.9181C29.0789 66.4178 27.1414 66.0665 24.9432 65.6939C21.6485 65.1351 18.3166 64.6773 15.0378 64.342L14.6067 64.2994L14.4098 63.9109C14.1703 63.4425 14.0106 62.9794 13.9414 62.5483C13.9254 62.4312 13.8562 61.7126 14.117 60.9249C14.1277 60.8876 15.5328 57.0074 24.9805 56.2942C29.8666 55.927 32.7941 56.736 37.2225 57.9602C39.5591 58.6042 42.2097 59.3387 45.8451 60.1158C46.2017 60.1904 46.6222 60.2915 47.1118 60.4033C51.2262 61.356 59.7956 63.3307 69.5999 62.0533C72.2931 61.702 74.981 61.1325 77.5891 60.35L78.8346 59.9775L78.6004 61.2549C78.462 62.0267 78.2118 62.7559 77.8605 63.4265C76.0242 66.9181 71.8673 68.1583 65.7569 69.0259C63.9898 69.2761 58.3638 69.8456 52.1577 69.8456H52.163ZM15.6553 62.7984C18.8222 63.1338 22.0317 63.5755 25.2093 64.1131C27.4289 64.491 29.3876 64.8476 31.7189 65.3533C33.172 65.6673 34.3376 65.9494 35.4607 66.2262C37.4886 66.7159 39.2397 67.1417 41.9117 67.5675C50.7419 68.9674 62.9785 67.8123 65.5334 67.4504C71.1434 66.6573 74.9278 65.5822 76.4447 62.692C76.5139 62.5589 76.5778 62.4205 76.6417 62.2822C74.4008 62.8836 72.1068 63.3413 69.8074 63.6394C59.7158 64.9541 50.9601 62.9315 46.7552 61.9628C46.2762 61.851 45.861 61.7552 45.5098 61.6807C41.8265 60.893 39.0375 60.1212 36.7966 59.5038C32.3736 58.2849 29.7069 57.545 25.0976 57.891C17.0551 58.4925 15.634 61.4146 15.6233 61.4412C15.4743 61.883 15.5169 62.3301 15.5222 62.3354C15.5435 62.4684 15.5914 62.6281 15.6553 62.8038V62.7984Z" fill="white"/>
<path d="M39.8471 89.1235C35.392 89.1235 31.416 88.2931 28.7494 87.7342C28.132 87.6065 27.5784 87.4894 27.0941 87.3989C24.4647 86.9092 22.7561 86.4196 20.7814 85.8554C19.7116 85.552 18.6045 85.2326 17.2366 84.8813C15.033 84.3171 13.1754 83.9179 11.073 83.4974C7.92198 82.8641 4.73373 82.3531 1.59338 81.9752L1.14096 81.9219L0.959987 81.5015C0.427725 80.2773 0.34789 79.1755 0.715151 78.2227C1.28999 76.7271 3.47759 74.928 10.6631 74.8535C15.7569 74.8056 18.8121 75.6466 22.6816 76.7217C24.5818 77.2487 26.7321 77.8448 29.436 78.4197C40.1292 80.6818 48.6347 80.3145 53.8935 79.6066C55.9214 79.3352 57.9599 78.9572 59.9506 78.4889L62.4097 77.9087L60.733 79.7982C57.7151 83.1887 54.2447 85.6904 50.4125 87.2339C46.8623 88.6604 43.2269 89.1341 39.863 89.1341L39.8471 89.1235ZM2.25871 80.4476C5.28728 80.8255 8.35311 81.3258 11.3817 81.9326C13.5107 82.3584 15.3896 82.7629 17.6304 83.3324C19.025 83.6891 20.1374 84.0084 21.2179 84.3171C23.1553 84.8707 24.8319 85.3497 27.3868 85.8288C27.8818 85.9192 28.446 86.0416 29.0741 86.1694C33.907 87.1807 42.0027 88.8733 49.8004 85.7383C52.6639 84.5886 55.3252 82.8587 57.7257 80.586C56.5175 80.8202 55.304 81.0171 54.0957 81.1821C48.7145 81.906 40.0121 82.2839 29.0954 79.9739C26.3436 79.3937 24.1666 78.7869 22.2451 78.2547C18.349 77.1742 15.5386 76.3864 10.6685 76.445C3.61066 76.5195 2.3971 78.26 2.19484 78.7922C2.01919 79.2447 2.04048 79.8035 2.25871 80.4476Z" fill="white"/>
<path d="M27.2198 106.486C25.1067 107.305 18.3895 109.514 17.144 109.796C18.6237 108.253 23.5099 102.786 23.7654 94.5789C23.8878 90.5976 22.8818 87.388 22.0462 85.3867C25.0588 86.1745 28.0767 86.9622 31.0893 87.75C31.6003 89.5064 32.1538 92.2795 31.7919 95.6381C31.2011 101.131 28.4972 104.905 27.2144 106.486H27.2198Z" fill="white"/>
<path d="M39.3656 80.3735C38.0456 80.283 36.731 80.1925 35.411 80.102C33.9951 78.6862 32.1854 76.5678 30.6153 73.683C28.8535 70.4415 28.0604 67.4555 27.6719 65.3584C28.6778 65.6086 29.6838 65.8587 30.6951 66.1089C31.1529 68.0623 32.0364 70.8513 33.8408 73.848C35.6984 76.9244 37.8221 79.0482 39.3656 80.3735Z" fill="white"/>
<path d="M9.90743 100.216C9.7584 100.435 9.36453 101.052 8.78437 101.057C8.66727 101.057 8.02323 101.143 7.70387 100.307C6.51693 97.1825 5.34063 93.989 4.1803 90.7262C2.97739 87.3464 1.82771 84.0091 0.736572 80.7197C4.2974 81.5607 7.85823 82.4017 11.4191 83.2373C12.2334 85.0843 13.282 88.2193 13.0052 92.0782C13.0052 92.0782 12.7178 96.0967 9.90743 100.211V100.216Z" fill="white"/>
<path d="M27.2733 78.3194C23.9201 77.6008 20.5722 76.8822 17.2189 76.1637C16.4897 74.7372 15.7446 72.9967 15.1644 70.9582C14.217 67.6422 14.036 64.7041 14.0892 62.5059C16.9155 63.283 19.7418 64.0547 22.5681 64.8318C22.318 66.1678 22.0519 68.6162 22.9035 71.4904C23.9733 75.1045 26.2035 77.3666 27.2733 78.3247V78.3194Z" fill="white"/>
<path d="M50.387 81.0757C54.363 80.0538 58.3336 79.0265 62.3096 78.0046C62.8366 76.956 63.1612 76.0405 63.3688 75.3645C63.9916 73.2834 64.0661 71.4684 64.1193 70.1005C64.1406 69.5203 64.1406 69.036 64.13 68.6953C60.8832 69.2595 57.6364 69.8184 54.3896 70.3826C54.6823 70.9734 55.0975 72.0326 55.023 73.3526C54.9697 74.2415 54.7302 74.976 54.3204 75.785C53.1494 78.0897 51.377 80.0591 50.3923 81.0757H50.387Z" fill="white"/>
<path d="M53.9869 80.3896C52.6616 80.5174 51.3362 80.6504 50.0109 80.7782C48.4354 79.7509 46.6683 78.4203 44.8799 76.6957C41.6864 73.6193 39.6265 70.447 38.3171 68.0039C39.5147 68.2115 40.707 68.4244 41.9046 68.632C42.9318 70.4204 44.4807 72.6931 46.7428 74.9712C49.3669 77.6166 52.0122 79.3198 53.9869 80.3896Z" fill="white"/>
<path d="M62.6117 62.5004C59.2637 62.2822 55.9105 62.0639 52.5626 61.8404C50.0397 56.933 47.0856 49.6782 45.8933 40.518C45.2599 35.6425 45.2599 31.2726 45.5261 27.6054C46.2872 27.8662 46.9153 27.9354 47.3411 27.9513C48.6238 27.9939 49.3424 27.616 51.4182 27.1742C52.1048 27.0252 52.669 26.94 53.0097 26.8975C52.8819 30.9214 53.1055 35.9353 54.2498 41.5559C56.1394 50.8119 59.7481 57.9017 62.6117 62.5004Z" fill="white"/>
<path d="M78.694 60.4774C76.3201 61.1533 73.9409 61.8293 71.567 62.5053C71.6309 60.6424 71.5883 57.6085 70.8165 54.0104C69.1718 46.3618 65.8079 43.5195 63.8386 36.4511C63.1041 33.8217 62.327 29.7446 62.7368 24.3262C65.5578 24.3528 68.3841 24.3794 71.2051 24.406C71.8278 28.2543 72.6848 31.4212 73.4459 33.8111C76.203 42.4656 79.1517 45.606 79.6467 52.1262C79.9075 55.5859 79.2901 58.4973 78.694 60.472V60.4774Z" fill="white"/>
<path d="M64.3354 35.3764C62.6588 34.6579 60.9609 33.9127 59.2417 33.1356C57.4799 32.3425 55.7607 31.5388 54.0734 30.7351C54.0362 30.1496 54.0149 29.5375 54.0149 28.8935C54.0149 28.5049 54.0202 28.127 54.0362 27.7598C55.4893 28.5635 57.2777 29.4098 59.3907 30.123C61.5677 30.8628 63.5637 31.2833 65.2456 31.5282C64.9422 32.8109 64.6442 34.0937 64.3408 35.3764H64.3354Z" fill="white"/>
<path d="M69.9555 47.8579C65.772 46.8839 61.0721 45.9631 56.8246 45.2871C56.617 44.8719 56.4042 44.3982 56.2019 43.8713C56.005 43.3443 55.8559 42.844 55.7441 42.3916C58.118 42.7322 60.7794 43.2592 63.6429 44.0576C66.1978 44.7708 68.4918 45.5905 70.5144 46.4155C70.3281 46.8945 70.1418 47.3736 69.9555 47.8526V47.8579Z" fill="white"/>
<path d="M69.6835 62.5901C69.231 61.7119 68.3049 60.2056 66.607 58.8856C64.6589 57.374 62.6896 56.8896 61.6889 56.7139C61.4175 56.0539 61.1513 55.3993 60.8799 54.7393C62.7854 55.0639 65.0368 55.5962 67.4906 56.4851C69.7527 57.2994 71.6848 58.2362 73.2709 59.1198C72.6961 60.1843 72.1212 61.2435 71.5517 62.308C70.929 62.3985 70.3115 62.4943 69.6888 62.5848L69.6835 62.5901Z" fill="white"/>
<path d="M103.706 25.2042C94.1144 34.061 75.3576 18.3965 49.1064 28.9194C47.9727 29.1908 45.684 29.5315 45.5243 27.7697C45.5137 27.4184 45.6361 27.0564 45.7692 26.785C46.3919 25.5927 47.2435 24.8103 48.1537 23.9267C53.3326 19.1044 60.0444 16.0919 67.0383 15.2243L67.1448 15.2189C66.9851 15.2243 67.0969 15.2189 67.1022 15.2189C67.4162 15.171 67.9432 15.1072 68.2625 15.0699C71.1261 14.676 74.1227 14.9475 76.9224 15.4531C83.3255 16.5656 89.6062 18.1411 95.9507 19.4345C99.4743 20.1424 103.072 20.8503 106.649 20.8982C105.899 22.4683 105.026 24.0385 103.695 25.2148L103.706 25.2042ZM102.599 23.9853C103.445 23.2242 104.148 22.298 104.675 21.2708L105.372 22.4311C98.825 21.9946 92.5283 20.2062 86.1465 18.8809C81.4626 17.9069 76.7255 16.6614 71.9671 16.3899C70.5991 16.3048 68.2093 16.5815 67.2565 16.7306C60.5554 17.5769 54.1629 20.4617 49.2289 25.0711C48.4518 25.8322 47.4884 26.6998 47.1158 27.6792C47.1051 27.7271 47.1211 27.7218 47.0838 27.61C47.0359 27.5035 46.9508 27.4716 46.9827 27.4823C47.4618 27.5993 48.0526 27.4822 48.654 27.3864L48.505 27.429C50.6766 26.5189 52.9015 25.7524 55.1636 25.0711C76.9543 17.9441 94.503 31.2134 102.599 23.98V23.9853Z" fill="white"/>
<path d="M52.0189 22.0217L53.5891 19.0144C55.9204 14.5434 61.3601 6.43704 71.5476 2.40249C74.0812 1.40184 80.809 -1.2648 89.1548 0.709895L90.1395 0.938768C96.9897 2.54088 105.511 4.53154 104.628 11.9353L104.5 13.0158L103.505 12.5687C98.2618 10.2001 90.0384 7.6293 80.6333 8.85351C73.3147 9.80626 67.4811 12.7071 63.9895 14.4423C60.7747 16.0444 57.6662 17.9233 54.7548 20.031L52.0083 22.0217H52.0189ZM83.0817 1.6041C77.9188 1.6041 73.9268 3.18492 72.1384 3.89282C64.4419 6.93736 59.5877 12.4356 56.7933 16.715C58.8904 15.3631 61.0674 14.1229 63.2923 13.0158C66.869 11.238 72.857 8.2627 80.4417 7.27269C89.5966 6.08574 97.6444 8.33721 103.089 10.6419C102.807 5.53751 95.9146 3.93008 89.7829 2.4983L88.7982 2.26942C86.7809 1.79571 84.8648 1.6041 83.0871 1.6041H83.0817Z" fill="white"/>
<path d="M86.3703 17.9281C84.9119 17.5502 83.4589 17.1776 82.0005 16.7997C81.3564 15.8363 80.574 14.7931 79.6426 13.7339C77.9766 11.8497 76.284 10.4232 74.8149 9.36401C75.7198 9.14046 76.6246 8.91691 77.5295 8.69336C78.8921 9.7153 80.3984 10.9768 81.9313 12.531C83.7995 14.4258 85.2526 16.2887 86.3703 17.9175V17.9281Z" fill="white"/>
<path d="M98.2723 20.377C97.2716 20.1907 96.271 20.0044 95.2703 19.8234C95.5897 18.8068 96.0581 16.8534 95.6589 14.4582C95.1426 11.3552 93.4873 9.33257 92.7581 8.53418C93.5405 8.70983 94.3282 8.88547 95.1107 9.05579C95.9782 9.98725 97.3195 11.6905 98.0541 14.1602C98.8418 16.8268 98.5437 19.1209 98.2776 20.3717L98.2723 20.377Z" fill="white"/>
<path d="M25.831 95.7828C24.346 95.3198 22.6641 94.8567 20.8065 94.4469C18.7679 93.9998 16.8997 93.7017 15.239 93.5047C15.388 93.228 15.6116 92.733 15.6595 92.0836C15.7234 91.2639 15.4892 90.6305 15.3561 90.3271C17.251 90.7636 19.2736 91.3065 21.3973 91.9825C23.2176 92.5627 24.9155 93.1801 26.4857 93.8135C26.2675 94.4681 26.0492 95.1228 25.831 95.7775V95.7828Z" fill="white"/>
<path d="M22.3148 105.506C21.2396 104.383 19.9888 103.196 18.5464 102.004C16.6728 100.455 14.8578 99.2097 13.2237 98.2197C13.1705 98.6296 13.0481 99.2257 12.7287 99.8857C12.3934 100.578 11.9782 101.067 11.6802 101.365C12.8405 101.706 14.7779 102.435 16.6834 104.064C18.1365 105.309 19.0467 106.629 19.5896 107.566C20.4997 106.88 21.4099 106.193 22.3201 105.506H22.3148Z" fill="white"/>
</svg>
